# xmcd CD database file
#
# Track frame offsets:
#	150
#	53367
#	98326
#	132693
#	156779
#	202538
#	248061
#
# Disc length: 3488 seconds
#
# Revision: 0
# Processed by: cddbd v1.5.1PL0 Copyright (c) Steve Scherf et al.
# Submitted via: CDex 1.51
#
DISCID=490d9e07
DTITLE=El Heladero - Cajas
DYEAR=2003
DGENRE=Jazz
TTITLE0=El Chinago
TTITLE1=A Miguel Angel y Salvatore
TTITLE2=A través de los anteojos de Malena
TTITLE3=Quiero que me regales una estufa
TTITLE4=Mezclando Parientes
TTITLE5=El Helader Maligno
TTITLE6=Cajas
EXTD=YEAR: 2003
EXTT0=
EXTT1=
EXTT2=
EXTT3=
EXTT4=
EXTT5=
EXTT6=
PLAYORDER=
